<?xml version="1.0" encoding="UTF-8" standalone="no"?>
<!-- Created with Inkscape (http://www.inkscape.org/) -->

<svg
   width="175mm"
   height="61mm"
   viewBox="0 0 175 61"
   version="1.1"
   id="svg1"
   inkscape:version="1.3.2 (091e20e, 2023-11-25, custom)"
   sodipodi:docname="starfuckerslogo.svg"
   xmlns:inkscape="http://www.inkscape.org/namespaces/inkscape"
   xmlns:sodipodi="http://sodipodi.sourceforge.net/DTD/sodipodi-0.dtd"
   xmlns:xlink="http://www.w3.org/1999/xlink"
   xmlns="http://www.w3.org/2000/svg"
   xmlns:svg="http://www.w3.org/2000/svg">
  <sodipodi:namedview
     id="namedview1"
     pagecolor="#ffffff"
     bordercolor="#000000"
     borderopacity="0.25"
     inkscape:showpageshadow="2"
     inkscape:pageopacity="0.0"
     inkscape:pagecheckerboard="0"
     inkscape:deskcolor="#d1d1d1"
     inkscape:document-units="mm"
     inkscape:zoom="0.13291485"
     inkscape:cx="1880.9035"
     inkscape:cy="-342.32444"
     inkscape:window-width="1920"
     inkscape:window-height="1017"
     inkscape:window-x="-8"
     inkscape:window-y="-8"
     inkscape:window-maximized="1"
     inkscape:current-layer="text1" />
  <defs
     id="defs1">
    <linearGradient
       id="linearGradient11"
       inkscape:collect="always">
      <stop
         style="stop-color:#6e91bc;stop-opacity:1;"
         offset="0"
         id="stop11" />
      <stop
         style="stop-color:#cf6da2;stop-opacity:1;"
         offset="1"
         id="stop12" />
    </linearGradient>
    <linearGradient
       inkscape:collect="always"
       xlink:href="#linearGradient11"
       id="linearGradient12"
       x1="4.4647436"
       y1="47.783845"
       x2="170.99827"
       y2="47.783845"
       gradientUnits="userSpaceOnUse" />
  </defs>
  <g
     inkscape:label="Layer 1"
     inkscape:groupmode="layer"
     id="layer1">
    <g
       id="text1"
       style="font-size:19.8846px;font-family:'Lights In The Sky';-inkscape-font-specification:'Lights In The Sky';text-align:end;text-anchor:end;fill:#f7f7f7;stroke-width:0.211372"
       aria-label="STARF★CKERS&#10;INCORPORATED">
      <path
         style="font-size:31.75px;font-family:DINEngschrift;-inkscape-font-specification:DINEngschrift;fill:#000000"
         d="m 29.243485,13.789302 v 1.5875 h -3.2385 v -0.73025 q 0,-1.11125 -0.53975,-1.905 -0.508,-0.8255 -1.74625,-0.8255 -1.3335,0 -1.778,0.92075 -0.41275,0.889 -0.41275,2.00025 0,1.23825 0.254,1.8415 0.254,0.60325 1.3335,1.0795 0.0635,0.03175 0.127,0.0635 0.0635,0 0.127,0.03175 l 2.4765,0.98425 q 2.159,0.79375 2.76225,2.25425 0.635,1.4605 0.635,3.937 0,2.8575 -1.23825,4.73075 -1.2065,1.87325 -4.34975,1.87325 -2.3495,0 -3.937,-1.524 -1.5875,-1.524 -1.5875,-3.81 v -1.2065 h 3.2385 v 1.016 q 0,0.889 0.508,1.61925 0.53975,0.6985 1.778,0.6985 1.651,0 2.00025,-0.889 0.34925,-0.92075 0.34925,-2.4765 0,-1.61925 -0.254,-2.2225 -0.254,-0.60325 -1.143,-1.016 -0.09525,-0.03175 -0.22225,-0.0635 -0.127,-0.0635 -0.254,-0.127 l -2.31775,-0.9525 q -2.0955,-0.85725 -2.82575,-2.25425 -0.6985,-1.42875 -0.6985,-3.556 0,-2.57175 1.36525,-4.3815 1.397,-1.8097496 4.191,-1.8097496 2.3495,0 3.81,1.5239996 1.4605,1.49225 1.5875,3.33375 0,0.0635 0,0.127 0,0.0635 0,0.127 z m 4.540255,17.68475 v -19.558 h -3.7465 V 8.8680524 h 10.7315 v 3.0479996 h -3.7465 v 19.558 h -3.2385 z m 5.207013,0 5.04825,-22.6059996 h 2.69875 l 5.04825,22.6059996 h -3.2385 l -0.9525,-4.85775 h -4.41325 l -0.9525,4.85775 h -3.2385 z m 8.001,-7.90575 -1.5875,-8.1915 h -0.0635 l -1.5875,8.1915 h 3.2385 z m 6.381738,7.90575 V 8.8680524 h 5.207 q 2.88925,0 4.28625,1.6827496 1.42875,1.651 1.42875,4.953 0,1.93675 -0.635,3.3655 -0.60325,1.42875 -2.159,2.286 l 3.4925,10.31875 h -3.429 l -3.01625,-9.652 h -1.93675 v 9.652 h -3.2385 z m 3.2385,-19.558 v 7.0485 h 1.8415 q 1.68275,0 2.12725,-0.92075 0.47625,-0.92075 0.47625,-2.6035 0,-1.7145 -0.508,-2.6035 -0.47625,-0.92075 -2.25425,-0.92075 h -1.68275 z m 10.287016,19.558 V 8.8680524 h 9.652 v 3.0479996 h -6.4135 v 6.858 h 5.588 v 3.048 h -5.588 v 9.652 h -3.2385 z"
         id="path8" />
      <path
         style="font-size:31.75px;font-family:DINEngschrift;-inkscape-font-specification:DINEngschrift;fill:#de3840"
         d="M 78.73484,16.715263 H 89.524879 L 92.873512,6.0492477 96.222145,16.715263 h 10.790035 l -8.80566,6.077149 3.22461,10.293945 -8.557618,-6.325195 -8.557617,6.325195 3.224609,-10.293945 z"
         id="path9" />
      <path
         style="font-size:31.75px;font-family:DINEngschrift;-inkscape-font-specification:DINEngschrift;fill:#000000"
         d="m 120.68353,25.028802 v 1.397 q 0,2.0955 -1.49225,3.65125 -1.49225,1.55575 -3.65125,1.55575 -0.22225,0 -0.4445,-0.03175 -0.22225,0 -0.4445,-0.03175 -1.651,-0.15875 -3.048,-1.3335 -1.397,-1.17475 -1.397,-3.90525 v -12.446 q 0,-2.2225 1.4605,-3.71475 1.4605,-1.4922496 3.81,-1.4922496 2.25425,0 3.71475,1.5239996 1.49225,1.524 1.49225,3.8735 v 1.27 h -3.2385 v -1.0795 q 0,-0.9525 -0.53975,-1.651 -0.53975,-0.6985 -1.4605,-0.6985 -1.2065,0 -1.61925,0.762 -0.381,0.73025 -0.381,1.87325 v 11.557 q 0,0.98425 0.4445,1.651 0.4445,0.66675 1.524,0.66675 0.127,0 0.254,0 0.127,-0.03175 0.254,-0.0635 0.5715,-0.127 1.04775,-0.635 0.47625,-0.508 0.47625,-1.5875 v -1.11125 h 3.2385 z m 2.63524,6.44525 V 8.8680524 h 3.2385 V 19.186802 h 0.0635 l 4.73075,-10.3187496 h 3.2385 l -4.41325,9.0487496 5.23875,13.55725 h -3.429 l -3.683,-10.033 -1.74625,3.27025 v 6.76275 h -3.2385 z m 13.52552,0 V 8.8680524 h 9.652 v 3.0479996 h -6.4135 v 6.63575 h 5.588 v 3.048 h -5.588 v 6.63575 h 6.4135 v 3.2385 h -9.652 z m 11.74753,0 V 8.8680524 h 5.207 q 2.88925,0 4.28625,1.6827496 1.42875,1.651 1.42875,4.953 0,1.93675 -0.635,3.3655 -0.60325,1.42875 -2.159,2.286 l 3.4925,10.31875 h -3.429 l -3.01625,-9.652 h -1.93675 v 9.652 h -3.2385 z m 3.2385,-19.558 v 7.0485 h 1.8415 q 1.68275,0 2.12725,-0.92075 0.47625,-0.92075 0.47625,-2.6035 0,-1.7145 -0.508,-2.6035 -0.47625,-0.92075 -2.25425,-0.92075 h -1.68275 z m 20.76451,1.87325 v 1.5875 h -3.2385 v -0.73025 q 0,-1.11125 -0.53975,-1.905 -0.508,-0.8255 -1.74625,-0.8255 -1.3335,0 -1.778,0.92075 -0.41275,0.889 -0.41275,2.00025 0,1.23825 0.254,1.8415 0.254,0.60325 1.3335,1.0795 0.0635,0.03175 0.127,0.0635 0.0635,0 0.127,0.03175 l 2.4765,0.98425 q 2.159,0.79375 2.76225,2.25425 0.635,1.4605 0.635,3.937 0,2.8575 -1.23825,4.73075 -1.2065,1.87325 -4.34975,1.87325 -2.3495,0 -3.937,-1.524 -1.5875,-1.524 -1.5875,-3.81 v -1.2065 h 3.2385 v 1.016 q 0,0.889 0.508,1.61925 0.53975,0.6985 1.778,0.6985 1.651,0 2.00025,-0.889 0.34925,-0.92075 0.34925,-2.4765 0,-1.61925 -0.254,-2.2225 -0.254,-0.60325 -1.143,-1.016 -0.0952,-0.03175 -0.22225,-0.0635 -0.127,-0.0635 -0.254,-0.127 l -2.31775,-0.9525 q -2.0955,-0.85725 -2.82575,-2.25425 -0.6985,-1.42875 -0.6985,-3.556 0,-2.57175 1.36525,-4.3815 1.397,-1.8097496 4.191,-1.8097496 2.3495,0 3.81,1.5239996 1.4605,1.49225 1.5875,3.33375 0,0.0635 0,0.127 0,0.0635 0,0.127 z"
         id="path10" />
      <path
         style="fill:url(#linearGradient12)"
         d="M 4.4647436,53.997783 V 41.569908 h 2.485575 v 12.427875 z m 4.9711499,0 V 41.569908 H 21.863768 v 12.427875 h -2.485575 v -9.9423 h -7.456725 v 9.9423 z m 14.9134495,0 V 41.569908 h 12.427875 v 2.485575 h -9.9423 v 7.456725 h 9.9423 v 2.485575 z m 24.85575,-2.485575 v -7.456725 h -7.456724 v 7.456725 z m -9.942299,2.485575 V 41.569908 h 12.427874 v 12.427875 z m 24.855752,-7.456725 v -2.485575 h -7.456725 v 2.485575 z m -9.9423,7.456725 V 41.569908 H 66.60412 v 7.456725 h -2.485574 v 4.97115 h -2.485575 v -4.97115 h -4.97115 v 4.97115 z m 24.855752,-7.456725 v -2.485575 h -7.456725 v 2.485575 z m -9.9423,7.456725 V 41.569908 h 12.427875 v 7.456725 h -9.9423 v 4.97115 z m 24.855744,-2.485575 v -7.456725 h -7.456725 v 7.456725 z m -9.9423,2.485575 V 41.569908 h 12.427875 v 12.427875 z m 24.855748,-7.456725 v -2.485575 h -7.45672 v 2.485575 z m -9.942295,7.456725 V 41.569908 h 12.427875 v 7.456725 h -2.48558 v 4.97115 h -2.48557 v -4.97115 h -4.97115 v 4.97115 z m 24.855755,-7.456725 v -2.485575 h -7.45673 v 2.485575 z m -9.9423,7.456725 V 41.569908 h 12.42787 v 12.427875 h -2.48557 v -4.97115 h -7.45673 v 4.97115 z m 19.8846,0 v -9.9423 h -4.97115 v -2.485575 h 12.42787 v 2.485575 h -4.97115 v 9.9423 z m 9.94229,0 V 41.569908 h 12.42788 v 2.485575 h -9.9423 v 2.485575 h 9.9423 v 2.485575 h -9.9423 v 2.485575 h 9.9423 v 2.485575 z m 24.85576,-2.485575 v -7.456725 h -4.97115 v 7.456725 z m -9.9423,2.485575 v -2.485575 h 2.48557 v -7.456725 h -2.48557 v -2.485575 h 12.42787 v 12.427875 z"
         id="path11" />
    </g>
  </g>
</svg>
